
        <svg xmlns="http://www.w3.org/2000/svg" xmlns:xlink="http://www.w3.org/1999/xlink" version="1.1" width="3162.027420024928" height="648.3339136414345" viewBox="0 0 3162.027420024928 648.3339136414345">
			
			<g transform="scale(8.101371001246365) translate(10, 10)">
				<defs id="SvgjsDefs2753"/><g id="SvgjsG2754" featureKey="UqkkrJ-0" transform="matrix(0.0864952139314958,0,0,0.0864952139314958,0,0)" fill="#fff"><defs xmlns="http://www.w3.org/2000/svg"/><g xmlns="http://www.w3.org/2000/svg"><path class="fil0" d="M24 408c11,-25 37,-30 62,-27 0,0 -29,48 -62,27z" style="fill: #46cdcf;"/><path class="fil0" d="M24 332c26,-8 47,7 61,28 0,0 -55,11 -61,-28z" style="fill: #46cdcf;"/><path class="fil0" d="M0 282c26,-8 47,7 61,28 0,0 -55,11 -61,-28z" style="fill: #46cdcf;"/><path class="fil0" d="M71 241c21,18 19,43 10,67 0,0 -39,-41 -10,-67z" style="fill: #46cdcf;"/><path class="fil0" d="M100 281c18,16 16,38 8,58 0,0 -33,-36 -8,-58z" style="fill: #46cdcf;"/><path class="fil0" d="M113 348c11,-21 33,-24 54,-21 0,0 -26,41 -54,21z" style="fill: #46cdcf;"/><path class="fil0" d="M110 264c23,3 33,23 37,44 0,0 -47,-12 -37,-44z" style="fill: #46cdcf;"/><path class="fil0" d="M131 231c23,3 33,23 37,44 0,0 -47,-12 -37,-44z" style="fill: #46cdcf;"/><path class="fil0" d="M147 215c23,-6 40,9 51,27 0,0 -48,6 -51,-27z" style="fill: #46cdcf;"/><path class="fil0" d="M201 188c17,13 14,31 4,47 0,0 -30,-31 -4,-47z" style="fill: #46cdcf;"/><path class="fil0" d="M183 155c24,-4 39,12 49,31 0,0 -49,2 -49,-31z" style="fill: #46cdcf;"/><path class="fil0" d="M154 135c19,-13 40,-6 58,7 0,0 -42,23 -58,-7z" style="fill: #46cdcf;"/><path class="fil0" d="M157 88c23,-1 37,16 45,36 0,0 -49,-3 -45,-36z" style="fill: #46cdcf;"/><path class="fil0" d="M221 71c13,20 5,40 -9,57 0,0 -22,-43 9,-57z" style="fill: #46cdcf;"/><path class="fil0" d="M19 245c21,3 30,20 34,39 0,0 -42,-10 -34,-39z" style="fill: #46cdcf;"/><path class="fil0" d="M95 222c21,3 30,21 34,39 0,0 -42,-10 -34,-39z" style="fill: #46cdcf;"/><path class="fil0" d="M74 204c14,7 16,22 14,37 0,0 -28,-19 -14,-37z" style="fill: #46cdcf;"/><path class="fil0" d="M103 178c20,10 23,31 20,51 0,0 -38,-25 -20,-51z" style="fill: #46cdcf;"/><path class="fil0" d="M160 168c20,8 26,28 25,48 0,0 -41,-20 -25,-48z" style="fill: #46cdcf;"/><path class="fil0" d="M135 175c15,11 12,26 4,39 0,0 -26,-26 -4,-39z" style="fill: #46cdcf;"/><path class="fil0" d="M126 100c21,10 25,31 22,52 0,0 -40,-25 -22,-52z" style="fill: #46cdcf;"/><path class="fil0" d="M106 148c19,-7 35,4 47,19 0,0 -42,10 -47,-19z" style="fill: #46cdcf;"/><path class="fil0" d="M47 165c23,-1 37,17 45,37 0,0 -49,-3 -45,-37z" style="fill: #46cdcf;"/><path class="fil0" d="M83 134c17,12 15,30 8,47 0,0 -31,-29 -8,-47z" style="fill: #46cdcf;"/><path class="fil0" d="M95 105c18,4 22,19 21,34 0,0 -35,-12 -21,-34z" style="fill: #46cdcf;"/><path class="fil0" d="M24 203c12,-11 27,-8 40,-1 0,0 -27,20 -40,1z" style="fill: #46cdcf;"/><path class="fil0" d="M15 227c17,-13 36,-7 51,4 0,0 -37,22 -51,-4z" style="fill: #46cdcf;"/><path class="fil0" d="M10 171c16,-4 27,5 36,18 0,0 -33,5 -36,-18z" style="fill: #46cdcf;"/><path class="fil0" d="M187 38c17,14 16,36 8,55 0,0 -32,-33 -8,-55z" style="fill: #46cdcf;"/><path class="fil0" d="M132 68c15,6 18,21 16,36 0,0 -29,-17 -16,-36z" style="fill: #46cdcf;"/><path class="fil0" d="M151 55c16,1 24,14 28,29 0,0 -33,-6 -28,-29z" style="fill: #46cdcf;"/><path class="fil0" d="M645 408c-11,-25 -36,-30 -61,-28 0,0 29,49 61,28z" style="fill: #46cdcf;"/><path class="fil0" d="M639 336c-26,-9 -47,7 -62,27 0,0 55,11 62,-27z" style="fill: #46cdcf;"/><path class="fil0" d="M667 282c-26,-8 -47,7 -62,28 0,0 55,11 62,-28z" style="fill: #46cdcf;"/><path class="fil0" d="M595 241c-20,18 -18,43 -9,67 0,0 39,-41 9,-67z" style="fill: #46cdcf;"/><path class="fil0" d="M567 281c-18,16 -17,38 -8,58 0,0 33,-36 8,-58z" style="fill: #46cdcf;"/><path class="fil0" d="M553 349c-11,-21 -33,-25 -54,-21 0,0 27,40 54,21z" style="fill: #46cdcf;"/><path class="fil0" d="M557 264c-23,3 -31,22 -35,43 10,0 45,-10 35,-43z" style="fill: #46cdcf;"/><path class="fil0" d="M529 234c-23,3 -27,20 -31,41 0,0 41,-9 31,-41z" style="fill: #46cdcf;"/><path class="fil0" d="M519 215c-23,-6 -39,9 -51,27 0,0 49,6 51,-27z" style="fill: #46cdcf;"/><path class="fil0" d="M468 199c-13,10 -11,24 -3,36 0,0 24,-24 3,-36z" style="fill: #46cdcf;"/><path class="fil0" d="M482 156c-17,-11 -35,-4 -50,8 0,0 38,19 50,-8z" style="fill: #46cdcf;"/><path class="fil0" d="M514 133c-19,-14 -40,-7 -58,6 0,0 43,24 58,-6z" style="fill: #46cdcf;"/><path class="fil0" d="M510 88c-24,-1 -37,16 -45,36 0,0 48,-3 45,-36z" style="fill: #46cdcf;"/><path class="fil0" d="M446 71c-13,20 -5,40 8,57 0,0 22,-43 -8,-57z" style="fill: #46cdcf;"/><path class="fil0" d="M647 245c-20,3 -29,20 -33,39 0,0 42,-10 33,-39z" style="fill: #46cdcf;"/><path class="fil0" d="M571 222c-20,3 -30,21 -33,39 0,0 42,-10 33,-39z" style="fill: #46cdcf;"/><path class="fil0" d="M593 204c-15,7 -17,22 -14,37 0,0 27,-19 14,-37z" style="fill: #46cdcf;"/><path class="fil0" d="M563 178c-20,10 -23,31 -19,51 0,0 38,-25 19,-51z" style="fill: #46cdcf;"/><path class="fil0" d="M505 160c-19,8 -23,28 -21,47 0,0 37,-23 21,-47z" style="fill: #46cdcf;"/><path class="fil0" d="M527 175c-12,15 -7,30 3,43 0,0 22,-31 -3,-43z" style="fill: #46cdcf;"/><path class="fil0" d="M540 100c-21,10 -24,31 -22,52 0,0 41,-25 22,-52z" style="fill: #46cdcf;"/><path class="fil0" d="M561 148c-20,-7 -36,4 -47,19 0,0 42,10 47,-19z" style="fill: #46cdcf;"/><path class="fil0" d="M620 165c-24,-1 -37,17 -45,37 0,0 48,-3 45,-37z" style="fill: #46cdcf;"/><path class="fil0" d="M603 149c-21,-7 -35,5 -43,22 0,0 44,10 43,-22z" style="fill: #46cdcf;"/><path class="fil0" d="M569 103c-18,4 -21,19 -18,35 0,0 33,-14 18,-35z" style="fill: #46cdcf;"/><path class="fil0" d="M642 203c-12,-11 -27,-8 -40,-1 0,0 27,20 40,1z" style="fill: #46cdcf;"/><path class="fil0" d="M651 227c-16,-13 -35,-7 -51,4 0,0 37,22 51,-4z" style="fill: #46cdcf;"/><path class="fil0" d="M657 171c-16,-4 -28,5 -36,18 0,0 33,5 36,-18z" style="fill: #46cdcf;"/><path class="fil0" d="M480 38c-17,14 -16,36 -9,55 0,0 33,-33 9,-55z" style="fill: #46cdcf;"/><path class="fil0" d="M535 68c-15,6 -18,21 -16,36 0,0 28,-17 16,-36z" style="fill: #46cdcf;"/><path class="fil0" d="M516 55c-16,1 -25,14 -28,29 0,0 33,-6 28,-29z" style="fill: #46cdcf;"/><path class="fil0" d="M283 222c10,25 -4,47 -23,63 0,0 -15,-54 23,-63z" style="fill: #46cdcf;"/><path class="fil0" d="M281 187c-21,3 -30,20 -33,39 0,0 41,-11 33,-39z" style="fill: #46cdcf;"/><path class="fil0" d="M312 159c-22,-9 -41,2 -55,18 0,0 46,14 55,-18z" style="fill: #46cdcf;"/><path class="fil0" d="M272 128c-16,5 -20,20 -20,35 0,0 30,-15 20,-35z" style="fill: #46cdcf;"/><path class="fil0" d="M252 95c-17,11 -18,30 -12,48 0,0 32,-27 12,-48z" style="fill: #46cdcf;"/><path class="fil0" d="M385 222c-10,25 4,47 23,63 0,0 15,-54 -23,-63z" style="fill: #46cdcf;"/><path class="fil0" d="M387 187c21,3 30,20 34,39 0,0 -42,-11 -34,-39z" style="fill: #46cdcf;"/><path class="fil0" d="M357 159c21,-9 40,2 54,18 0,0 -46,14 -54,-18z" style="fill: #46cdcf;"/><path class="fil0" d="M397 128c15,5 19,20 19,35 0,0 -30,-15 -19,-35z" style="fill: #46cdcf;"/><path class="fil0" d="M416 95c17,11 18,30 13,48 0,0 -32,-27 -13,-48z" style="fill: #46cdcf;"/><path class="fil0" d="M346 277c5,20 25,22 46,18 0,0 -15,-38 -46,-18z" style="fill: #46cdcf;"/><path class="fil0" d="M341 220c23,3 33,22 37,43 0,0 -46,-12 -37,-43z" style="fill: #46cdcf;"/><path class="fil0" d="M339 207c-19,-13 -40,-6 -58,6 0,0 43,24 58,-6z" style="fill: #46cdcf;"/><path class="fil0" d="M320 266c-20,-3 -34,11 -43,28 0,0 43,2 43,-28z" style="fill: #46cdcf;"/><path class="fil0" d="M333 226c-24,-1 -38,17 -45,37 0,0 48,-3 45,-37z" style="fill: #46cdcf;"/><path class="fil0" d="M341 194c20,-7 36,5 47,20 0,0 -42,10 -47,-20z" style="fill: #46cdcf;"/><path class="fil0" d="M324 142c17,11 18,30 13,48 0,0 -33,-27 -13,-48z" style="fill: #46cdcf;"/><path class="fil0" d="M380 111c15,12 12,26 4,40 0,0 -26,-26 -4,-40z" style="fill: #46cdcf;"/><path class="fil0" d="M310 117c-19,3 -28,19 -31,37 0,0 39,-10 31,-37z" style="fill: #46cdcf;"/><path class="fil0" d="M248 63c-15,7 -17,22 -15,37 0,0 28,-18 15,-37z" style="fill: #46cdcf;"/><path class="fil0" d="M288 86c-13,10 -13,26 -8,41 0,0 26,-24 8,-41z" style="fill: #46cdcf;"/><path class="fil0" d="M329 110c23,2 35,20 41,41 0,0 -48,-8 -41,-41z" style="fill: #46cdcf;"/><path class="fil0" d="M380 64c21,9 24,31 22,52 0,0 -41,-25 -22,-52z" style="fill: #46cdcf;"/><path class="fil0" d="M300 56c-24,-1 -38,16 -45,36 0,0 48,-3 45,-36z" style="fill: #46cdcf;"/><path class="fil0" d="M229 12c9,21 -3,39 -19,53 0,0 -13,-46 19,-53z" style="fill: #46cdcf;"/><path class="fil0" d="M326 34c-15,16 -9,35 2,51 0,0 27,-36 -2,-51z" style="fill: #46cdcf;"/><path class="fil0" d="M341 77c20,5 26,23 27,42 0,0 -39,-16 -27,-42z" style="fill: #46cdcf;"/><path class="fil0" d="M407 53c20,7 25,26 24,44 0,0 -38,-19 -24,-44z" style="fill: #46cdcf;"/><path class="fil0" d="M437 18c20,10 23,31 20,51 0,0 -38,-26 -20,-51z" style="fill: #46cdcf;"/><path class="fil0" d="M372 29c-16,7 -19,23 -17,38 0,0 30,-18 17,-38z" style="fill: #46cdcf;"/><path class="fil0" d="M255 14c-15,17 -9,38 2,55 0,0 25,-39 -2,-55z" style="fill: #46cdcf;"/><path class="fil0" d="M401 9c-17,12 -18,31 -13,49 0,0 32,-27 13,-49z" style="fill: #46cdcf;"/><path class="fil0" d="M326 0c17,6 22,22 21,39 0,0 -33,-16 -21,-39z" style="fill: #46cdcf;"/><path class="fil0" d="M307 7c14,13 11,31 3,46 0,0 -26,-30 -3,-46z" style="fill: #46cdcf;"/><path class="fil0" d="M368 6c-12,4 -15,15 -15,27 0,0 23,-12 15,-27z" style="fill: #46cdcf;"/><path class="fil0" d="M177 694c9,-19 38,-23 56,-27 19,-5 30,-10 34,-33 1,-6 -1,-20 1,-26 7,-21 24,-41 18,-70 -4,-24 5,-29 -14,-68 -17,-34 -56,-36 -89,-55 -12,-8 -34,-20 -39,-23 -14,-7 -24,-5 -39,-8 -2,0 -13,-2 -14,-3 -1,-1 0,-2 1,-2 5,-1 23,0 19,-9 -1,-2 -6,-9 -9,-9 -2,1 -6,1 -13,-1 3,-2 11,1 9,-4 -4,-5 -14,-19 -19,-28 -4,-9 -13,-11 -15,-17 10,2 17,14 25,26 14,23 36,33 59,45 14,7 33,13 48,19 11,4 42,14 52,11 10,-3 2,-15 -1,-21 -2,-4 -4,-8 -7,-13 -14,-23 -26,-30 -47,-46 -8,-5 -16,-6 -25,-9 -4,-2 -17,-7 -20,-13 9,4 17,6 19,5 2,-1 -2,-7 0,-5 7,6 9,7 18,8 5,1 7,2 12,4 2,1 4,2 6,0 4,-5 -8,-20 -11,-24 -6,-5 -12,-10 -18,-15 -2,-2 -4,-4 -4,-6 1,0 3,2 4,3 7,5 14,11 22,16 5,4 18,18 21,24 5,10 2,14 12,23 1,0 2,1 3,2 9,8 16,16 24,26 5,6 26,37 33,35 14,-8 14,-28 9,-40 -12,-28 -30,-39 -50,-60 -8,-7 -14,-14 -19,-24 -3,-6 -8,-11 -12,-18 -2,-3 -12,-17 -12,-19 0,-5 10,2 12,2 7,3 6,-2 7,-7 3,-18 9,-34 13,-51 2,-8 3,-16 1,-24 -3,-14 -10,-20 -22,-27 -3,-1 -13,-7 -11,-11 1,-1 1,1 2,3 4,3 15,8 20,11 11,6 17,15 21,27 3,11 2,25 -1,35 -1,4 -2,8 -3,12 -6,23 -11,45 4,66 16,22 44,32 64,55 9,10 16,20 21,30 6,-10 12,-20 21,-30 21,-23 48,-33 65,-55 15,-21 10,-43 4,-66 -1,-4 -2,-8 -3,-12 -3,-10 -5,-24 -1,-35 3,-12 10,-21 20,-27 5,-3 17,-8 20,-11 2,-2 2,-4 3,-3 2,4 -9,10 -11,11 -13,7 -19,13 -23,27 -2,8 0,16 2,24 4,17 10,33 13,51 1,5 0,10 7,7 1,0 12,-7 12,-2 0,2 -10,16 -12,19 -4,7 -9,12 -13,18 -5,10 -10,17 -18,24 -20,21 -38,32 -50,60 -5,12 -6,32 8,40 8,2 29,-29 34,-35 7,-10 14,-18 24,-26 1,-1 2,-2 3,-2 9,-9 7,-13 12,-23 3,-6 15,-20 21,-24 7,-5 14,-11 22,-16 0,-1 3,-3 4,-3 -1,2 -3,4 -4,6 -6,5 -12,10 -18,15 -4,4 -15,23 -12,27 2,2 6,0 8,-2 5,-2 7,-3 13,-4 6,0 8,-1 17,-2 4,0 13,-7 17,-7 -1,4 -16,11 -20,13 -8,3 -16,4 -24,9 -22,16 -33,23 -48,46 -2,5 -5,9 -7,13 -3,6 -10,18 0,21 9,3 41,-7 51,-11 16,-6 34,-12 48,-19 24,-12 40,-23 56,-44 4,-5 18,-22 28,-26 0,3 -8,9 -11,12 -13,12 -12,22 -24,34 -2,3 6,3 8,5 -3,3 -10,-2 -15,3 -2,1 -4,3 -4,4 -4,9 13,8 19,9 1,0 2,1 1,2 -2,1 -12,3 -15,3 -14,3 -24,1 -38,8 -6,3 -27,15 -40,23 -32,19 -71,21 -88,55 -20,39 -10,44 -15,68 -5,29 12,49 19,70 1,6 -1,20 0,26 4,23 16,28 35,33 17,4 47,8 55,27 -104,0 -208,0 -312,0z" style="fill: #46cdcf;"/><path class="fil0" d="M187 246c12,12 11,28 4,42 0,0 -23,-26 -4,-42z" style="fill: #46cdcf;"/><path class="fil0" d="M151 356c14,-18 35,-17 54,-10 0,0 -32,33 -54,10z" style="fill: #46cdcf;"/><path class="fil0" d="M77 421c4,-20 23,-28 42,-29 0,0 -15,40 -42,29z" style="fill: #46cdcf;"/><path class="fil0" d="M495 257c-14,-8 -28,-1 -39,9 0,0 31,13 39,-9z" style="fill: #46cdcf;"/><path class="fil0" d="M508 349c-19,-15 -40,-8 -57,6 0,0 41,26 57,-6z" style="fill: #46cdcf;"/><path class="fil0" d="M594 421c-2,-19 -18,-27 -36,-30 0,0 8,40 36,30z" style="fill: #46cdcf;"/><path class="fil0" d="M321 84c-12,8 -10,22 -3,36 0,0 22,-19 3,-36z" style="fill: #46cdcf;"/><path class="fil0" d="M425 22c-12,4 -15,15 -15,27 0,0 23,-12 15,-27z" style="fill: #46cdcf;"/><path class="fil0" d="M287 3c-13,10 -13,27 -8,42 0,0 24,-25 8,-42z" style="fill: #46cdcf;"/><path class="fil0" d="M473 173c-20,1 -31,17 -35,35 0,0 41,-7 35,-35z" style="fill: #46cdcf;"/><path class="fil0" d="M454 271c-13,10 -10,24 -3,36 0,0 24,-24 3,-36z" style="fill: #46cdcf;"/><path class="fil0" d="M240 307c14,13 10,28 0,41 0,0 -25,-29 0,-41z" style="fill: #46cdcf;"/><path class="fil0" d="M514 275c-14,7 -16,22 -14,37 0,0 28,-18 14,-37z" style="fill: #46cdcf;"/><path class="fil0" d="M147 292c14,-8 28,-3 39,7 0,0 -30,14 -39,-7z" style="fill: #46cdcf;"/><path class="fil0" d="M54 127c15,7 17,22 15,37 0,0 -28,-18 -15,-37z" style="fill: #46cdcf;"/><path class="fil0" d="M601 125c-15,-6 -28,2 -38,13 0,0 32,10 38,-13z" style="fill: #46cdcf;"/><path class="fil0" d="M335 290c17,8 18,25 13,41 0,0 -31,-21 -13,-41z" style="fill: #46cdcf;"/><path class="fil0" d="M435 298c13,12 10,28 1,42 0,0 -23,-29 -1,-42z" style="fill: #46cdcf;"/><circle class="fil0" cx="211" cy="283" r="6" style="fill: #46cdcf;"/><circle class="fil0" cx="134" cy="317" r="6" style="fill: #46cdcf;"/><circle class="fil0" cx="132" cy="402" r="6" style="fill: #46cdcf;"/><circle class="fil0" cx="308" cy="300" r="6" style="fill: #46cdcf;"/><circle class="fil0" cx="220" cy="300" r="8" style="fill: #46cdcf;"/><circle class="fil0" cx="307" cy="185" r="8" style="fill: #46cdcf;"/><circle class="fil0" cx="307" cy="79" r="8" style="fill: #46cdcf;"/><circle class="fil0" cx="515" cy="366" r="8" style="fill: #46cdcf;"/><circle class="fil0" cx="609" cy="326" r="7" style="fill: #46cdcf;"/><circle class="fil0" cx="624" cy="321" r="5" style="fill: #46cdcf;"/><circle class="fil0" cx="413" cy="332" r="7" style="fill: #46cdcf;"/><circle class="fil0" cx="316" cy="319" r="7" style="fill: #46cdcf;"/><circle class="fil0" cx="208" cy="360" r="7" style="fill: #46cdcf;"/><circle class="fil0" cx="544" cy="401" r="7" style="fill: #46cdcf;"/><circle class="fil0" cx="86" cy="370" r="6" style="fill: #46cdcf;"/><circle class="fil0" cx="59" cy="323" r="6" style="fill: #46cdcf;"/><circle class="fil0" cx="98" cy="260" r="6" style="fill: #46cdcf;"/><circle class="fil0" cx="220" cy="153" r="6" style="fill: #46cdcf;"/><circle class="fil0" cx="435" cy="63" r="6" style="fill: #46cdcf;"/><circle class="fil0" cx="354" cy="181" r="6" style="fill: #46cdcf;"/><circle class="fil0" cx="451" cy="228" r="6" style="fill: #46cdcf;"/><circle class="fil0" cx="336" cy="260" r="7" style="fill: #46cdcf;"/></g></g><g id="SvgjsG2755" featureKey="0kuQ8p-0" transform="matrix(1.5120405608999405,0,0,1.5120405608999405,76.51819950048105,-2.953332975415183)" fill="#fff"><path d="M12 9.84 l-1.82 0 c-0.1 -2.22 -1.94 -2.92 -3.56 -2.92 c-1.22 0 -3.28 0.34 -3.28 2.52 c0 1.22 0.86 1.62 1.7 1.82 l4.1 0.94 c1.86 0.44 3.26 1.56 3.26 3.84 c0 3.4 -3.16 4.34 -5.62 4.34 c-2.66 0 -3.7 -0.8 -4.34 -1.38 c-1.22 -1.1 -1.46 -2.3 -1.46 -3.64 l1.82 0 c0 2.6 2.12 3.36 3.96 3.36 c1.4 0 3.76 -0.36 3.76 -2.42 c0 -1.5 -0.7 -1.98 -3.06 -2.54 l-2.94 -0.68 c-0.94 -0.22 -3.06 -0.88 -3.06 -3.38 c0 -2.24 1.46 -4.44 4.94 -4.44 c5.02 0 5.52 3 5.6 4.58 z M16.2 12.719999999999999 l-1.62 0 c0.08 -2.5 1.74 -3.48 4.32 -3.48 c0.84 0 3.88 0.24 3.88 2.92 l0 6.02 c0 0.44 0.22 0.62 0.58 0.62 c0.16 0 0.38 -0.04 0.58 -0.08 l0 1.28 c-0.3 0.08 -0.56 0.2 -0.96 0.2 c-1.56 0 -1.8 -0.8 -1.86 -1.6 c-0.68 0.74 -1.74 1.7 -3.78 1.7 c-1.92 0 -3.28 -1.22 -3.28 -3.02 c0 -0.88 0.26 -2.92 3.18 -3.28 l2.9 -0.36 c0.42 -0.04 0.92 -0.2 0.92 -1.24 c0 -1.1 -0.8 -1.7 -2.46 -1.7 c-2 0 -2.28 1.22 -2.4 2.02 z M21.02 16.38 l0 -1.72 c-0.28 0.22 -0.72 0.38 -2.9 0.66 c-0.86 0.12 -2.24 0.38 -2.24 1.7 c0 1.14 0.58 1.82 1.9 1.82 c1.64 0 3.24 -1.06 3.24 -2.46 z M27.76 13.92 l0 6.08 l-1.76 0 l0 -10.46 l1.66 0 l0 1.74 l0.04 0 c0.7 -1.22 1.62 -2.04 2.94 -2.04 c0.22 0 0.32 0.02 0.46 0.06 l0 1.82 l-0.66 0 c-1.64 0 -2.68 1.28 -2.68 2.8 z M33.980000000000004 12.719999999999999 l-1.62 0 c0.08 -2.5 1.74 -3.48 4.32 -3.48 c0.84 0 3.88 0.24 3.88 2.92 l0 6.02 c0 0.44 0.22 0.62 0.58 0.62 c0.16 0 0.38 -0.04 0.58 -0.08 l0 1.28 c-0.3 0.08 -0.56 0.2 -0.96 0.2 c-1.56 0 -1.8 -0.8 -1.86 -1.6 c-0.68 0.74 -1.74 1.7 -3.78 1.7 c-1.92 0 -3.28 -1.22 -3.28 -3.02 c0 -0.88 0.26 -2.92 3.18 -3.28 l2.9 -0.36 c0.42 -0.04 0.92 -0.2 0.92 -1.24 c0 -1.1 -0.8 -1.7 -2.46 -1.7 c-2 0 -2.28 1.22 -2.4 2.02 z M38.8 16.38 l0 -1.72 c-0.28 0.22 -0.72 0.38 -2.9 0.66 c-0.86 0.12 -2.24 0.38 -2.24 1.7 c0 1.14 0.58 1.82 1.9 1.82 c1.64 0 3.24 -1.06 3.24 -2.46 z M52.06 12.879999999999999 l0 7.12 l-1.76 0 l0 -6.84 c0 -1.42 -0.4 -2.34 -2.08 -2.34 c-1.44 0 -2.92 0.84 -2.92 3.48 l0 5.7 l-1.76 0 l0 -14.36 l1.76 0 l0 5.3 l0.04 0 c0.5 -0.66 1.38 -1.7 3.06 -1.7 c1.62 0 3.66 0.66 3.66 3.64 z M72.4 9.96 l-1.88 0 c-0.54 -2.52 -2.64 -2.98 -4.02 -2.98 c-2.6 0 -4.7 1.92 -4.7 5.7 c0 3.38 1.2 5.98 4.76 5.98 c1.26 0 3.44 -0.6 4.1 -3.94 l1.88 0 c-0.8 5.42 -5.2 5.66 -6.28 5.66 c-3.26 0 -6.46 -2.12 -6.46 -7.64 c0 -4.42 2.52 -7.48 6.7 -7.48 c3.7 0 5.62 2.3 5.9 4.7 z M74.06 14.76 c0 -2.7 1.52 -5.52 4.86 -5.52 s4.86 2.82 4.86 5.52 s-1.52 5.52 -4.86 5.52 s-4.86 -2.82 -4.86 -5.52 z M75.88 14.76 c0 1.4 0.52 4 3.04 4 s3.04 -2.6 3.04 -4 s-0.52 -4 -3.04 -4 s-3.04 2.6 -3.04 4 z M94.26 20 l-1.66 0 l0 -1.52 l-0.04 -0.04 c-0.74 1.22 -1.64 1.86 -3.32 1.86 c-1.54 0 -3.4 -0.74 -3.4 -3.24 l0 -7.52 l1.76 0 l0 6.94 c0 1.72 0.88 2.3 2.02 2.3 c2.22 0 2.88 -1.96 2.88 -3.48 l0 -5.76 l1.76 0 l0 10.46 z M104.54 12.52 l-1.7 0 c-0.02 -0.66 -0.26 -1.76 -2.48 -1.76 c-0.54 0 -2.08 0.18 -2.08 1.48 c0 0.86 0.54 1.06 1.9 1.4 l1.76 0.44 c2.18 0.54 2.94 1.34 2.94 2.76 c0 2.16 -1.78 3.46 -4.14 3.46 c-4.14 0 -4.44 -2.4 -4.5 -3.66 l1.7 0 c0.06 0.82 0.3 2.14 2.78 2.14 c1.26 0 2.4 -0.5 2.4 -1.66 c0 -0.84 -0.58 -1.12 -2.08 -1.5 l-2.04 -0.5 c-1.46 -0.36 -2.42 -1.1 -2.42 -2.54 c0 -2.3 1.9 -3.34 3.96 -3.34 c3.74 0 4 2.76 4 3.28 z M108.7 9.54 l0 10.46 l-1.76 0 l0 -10.46 l1.76 0 z M108.7 7.640000000000001 l-1.76 0 l0 -2 l1.76 0 l0 2 z M119.86000000000001 12.879999999999999 l0 7.12 l-1.76 0 l0 -6.44 c0 -1.82 -0.52 -2.74 -2.24 -2.74 c-1 0 -2.76 0.64 -2.76 3.48 l0 5.7 l-1.76 0 l0 -10.46 l1.66 0 l0 1.48 l0.04 0 c0.38 -0.56 1.36 -1.78 3.16 -1.78 c1.62 0 3.66 0.66 3.66 3.64 z M130.42000000000002 13.84 l0 6.16 l-1.94 0 l0 -14.36 l6.64 0 c2.36 0 4.72 0.82 4.72 3.86 c0 2.12 -1.08 2.9 -2 3.44 c0.82 0.34 1.64 0.7 1.72 2.7 l0.12 2.6 c0.02 0.8 0.12 1.1 0.72 1.44 l0 0.32 l-2.38 0 c-0.28 -0.88 -0.34 -3.06 -0.34 -3.6 c0 -1.18 -0.24 -2.56 -2.56 -2.56 l-4.7 0 z M130.42000000000002 7.300000000000001 l0 4.88 l4.5 0 c1.42 0 2.92 -0.36 2.92 -2.48 c0 -2.22 -1.62 -2.4 -2.58 -2.4 l-4.84 0 z M141.86 14.76 c0 -2.7 1.52 -5.52 4.86 -5.52 s4.86 2.82 4.86 5.52 s-1.52 5.52 -4.86 5.52 s-4.86 -2.82 -4.86 -5.52 z M143.68000000000004 14.76 c0 1.4 0.52 4 3.04 4 s3.04 -2.6 3.04 -4 s-0.52 -4 -3.04 -4 s-3.04 2.6 -3.04 4 z M161.22000000000003 12.52 l-1.7 0 c-0.02 -0.66 -0.26 -1.76 -2.48 -1.76 c-0.54 0 -2.08 0.18 -2.08 1.48 c0 0.86 0.54 1.06 1.9 1.4 l1.76 0.44 c2.18 0.54 2.94 1.34 2.94 2.76 c0 2.16 -1.78 3.46 -4.14 3.46 c-4.14 0 -4.44 -2.4 -4.5 -3.66 l1.7 0 c0.06 0.82 0.3 2.14 2.78 2.14 c1.26 0 2.4 -0.5 2.4 -1.66 c0 -0.84 -0.58 -1.12 -2.08 -1.5 l-2.04 -0.5 c-1.46 -0.36 -2.42 -1.1 -2.42 -2.54 c0 -2.3 1.9 -3.34 3.96 -3.34 c3.74 0 4 2.76 4 3.28 z M172.10000000000002 12.879999999999999 l0 7.12 l-1.76 0 l0 -6.84 c0 -1.42 -0.4 -2.34 -2.08 -2.34 c-1.44 0 -2.92 0.84 -2.92 3.48 l0 5.7 l-1.76 0 l0 -14.36 l1.76 0 l0 5.3 l0.04 0 c0.5 -0.66 1.38 -1.7 3.06 -1.7 c1.62 0 3.66 0.66 3.66 3.64 z M176.26000000000005 12.719999999999999 l-1.62 0 c0.08 -2.5 1.74 -3.48 4.32 -3.48 c0.84 0 3.88 0.24 3.88 2.92 l0 6.02 c0 0.44 0.22 0.62 0.58 0.62 c0.16 0 0.38 -0.04 0.58 -0.08 l0 1.28 c-0.3 0.08 -0.56 0.2 -0.96 0.2 c-1.56 0 -1.8 -0.8 -1.86 -1.6 c-0.68 0.74 -1.74 1.7 -3.78 1.7 c-1.92 0 -3.28 -1.22 -3.28 -3.02 c0 -0.88 0.26 -2.92 3.18 -3.28 l2.9 -0.36 c0.42 -0.04 0.92 -0.2 0.92 -1.24 c0 -1.1 -0.8 -1.7 -2.46 -1.7 c-2 0 -2.28 1.22 -2.4 2.02 z M181.08000000000004 16.38 l0 -1.72 c-0.28 0.22 -0.72 0.38 -2.9 0.66 c-0.86 0.12 -2.24 0.38 -2.24 1.7 c0 1.14 0.58 1.82 1.9 1.82 c1.64 0 3.24 -1.06 3.24 -2.46 z M189.56000000000003 18.06 l2.8 -8.52 l1.94 0 c-1.22 3.42 -2.42 6.84 -3.76 10.26 c-1.66 4.24 -1.84 4.48 -4.1 4.48 c-0.26 0 -0.46 -0.08 -0.74 -0.16 l0 -1.6 c0.22 0.08 0.58 0.18 1.06 0.18 c0.92 0 1.02 -0.26 1.86 -2.42 l-3.88 -10.74 l2 0 l2.78 8.52 l0.04 0 z"/></g><g id="SvgjsG2756" featureKey="Nh6iBa-0" transform="matrix(0.73872084863237,0,0,0.73872084863237,76.72940011921735,40.1143285193635)" fill="#fff"><path d="M3.66 7.300000000000001 l0 4.98 l3.86 0 c1.74 0 2.92 -0.64 2.92 -2.58 c0 -1.82 -1.24 -2.4 -2.84 -2.4 l-3.94 0 z M3.66 13.940000000000001 l0 6.06 l-1.94 0 l0 -14.36 l6.46 0 c2.66 0 4.26 1.72 4.26 4.04 c0 2 -1.14 4.26 -4.26 4.26 l-4.52 0 z M30.338 9.84 l-1.82 0 c-0.1 -2.22 -1.94 -2.92 -3.56 -2.92 c-1.22 0 -3.28 0.34 -3.28 2.52 c0 1.22 0.86 1.62 1.7 1.82 l4.1 0.94 c1.86 0.44 3.26 1.56 3.26 3.84 c0 3.4 -3.16 4.34 -5.62 4.34 c-2.66 0 -3.7 -0.8 -4.34 -1.38 c-1.22 -1.1 -1.46 -2.3 -1.46 -3.64 l1.82 0 c0 2.6 2.12 3.36 3.96 3.36 c1.4 0 3.76 -0.36 3.76 -2.42 c0 -1.5 -0.7 -1.98 -3.06 -2.54 l-2.94 -0.68 c-0.94 -0.22 -3.06 -0.88 -3.06 -3.38 c0 -2.24 1.46 -4.44 4.94 -4.44 c5.02 0 5.52 3 5.6 4.58 z M44.316 14.219999999999999 l0 5.78 l-1.94 0 l0 -5.78 l-5.42 -8.58 l2.26 0 l4.12 6.9 l4.12 -6.9 l2.28 0 z M68.494 9.96 l-1.88 0 c-0.54 -2.52 -2.64 -2.98 -4.02 -2.98 c-2.6 0 -4.7 1.92 -4.7 5.7 c0 3.38 1.2 5.98 4.76 5.98 c1.26 0 3.44 -0.6 4.1 -3.94 l1.88 0 c-0.8 5.42 -5.2 5.66 -6.28 5.66 c-3.26 0 -6.46 -2.12 -6.46 -7.64 c0 -4.42 2.52 -7.48 6.7 -7.48 c3.7 0 5.62 2.3 5.9 4.7 z M85.432 11.58 l0 -5.94 l1.94 0 l0 14.36 l-1.94 0 l0 -6.7 l-7.5 0 l0 6.7 l-1.94 0 l0 -14.36 l1.94 0 l0 5.94 l7.5 0 z M106.67 12.82 c0 -3.38 -1.88 -5.84 -5 -5.84 s-5 2.46 -5 5.84 s1.88 5.84 5 5.84 s5 -2.46 5 -5.84 z M108.67 12.82 c0 3.1 -1.64 7.56 -7 7.56 s-7 -4.46 -7 -7.56 s1.64 -7.56 7 -7.56 s7 4.46 7 7.56 z M114.72800000000001 7.359999999999999 l0 -1.72 l11.66 0 l0 1.72 l-4.86 0 l0 12.64 l-1.94 0 l0 -12.64 l-4.86 0 z M142.646 11.58 l0 -5.94 l1.94 0 l0 14.36 l-1.94 0 l0 -6.7 l-7.5 0 l0 6.7 l-1.94 0 l0 -14.36 l1.94 0 l0 5.94 l7.5 0 z M163.42399999999998 18.28 l0 1.72 l-10.6 0 l0 -14.36 l10.46 0 l0 1.72 l-8.52 0 l0 4.4 l7.86 0 l0 1.72 l-7.86 0 l0 4.8 l8.66 0 z M173.14199999999997 13.84 l0 6.16 l-1.94 0 l0 -14.36 l6.64 0 c2.36 0 4.72 0.82 4.72 3.86 c0 2.12 -1.08 2.9 -2 3.44 c0.82 0.34 1.64 0.7 1.72 2.7 l0.12 2.6 c0.02 0.8 0.12 1.1 0.72 1.44 l0 0.32 l-2.38 0 c-0.28 -0.88 -0.34 -3.06 -0.34 -3.6 c0 -1.18 -0.24 -2.56 -2.56 -2.56 l-4.7 0 z M173.14199999999997 7.300000000000001 l0 4.88 l4.5 0 c1.42 0 2.92 -0.36 2.92 -2.48 c0 -2.22 -1.62 -2.4 -2.58 -2.4 l-4.84 0 z M198.41999999999996 15.82 l-5.76 0 l-1.5 4.18 l-2 0 l5.4 -14.36 l2.2 0 l5.2 14.36 l-2.12 0 z M193.25999999999996 14.1 l4.46 0 l-2.12 -6.32 l-0.04 0 z M210.87799999999996 7.300000000000001 l0 4.98 l3.86 0 c1.74 0 2.92 -0.64 2.92 -2.58 c0 -1.82 -1.24 -2.4 -2.84 -2.4 l-3.94 0 z M210.87799999999996 13.940000000000001 l0 6.06 l-1.94 0 l0 -14.36 l6.46 0 c2.66 0 4.26 1.72 4.26 4.04 c0 2 -1.14 4.26 -4.26 4.26 l-4.52 0 z M233.19599999999994 14.219999999999999 l0 5.78 l-1.94 0 l0 -5.78 l-5.42 -8.58 l2.26 0 l4.12 6.9 l4.12 -6.9 l2.28 0 z"/></g>
			</g>
		</svg>
	